<?xml version="1.0" encoding="UTF-8" standalone="no"?>
<svg
   width="14"
   height="14"
   viewBox="0 0 24 24"
   fill="none"
   version="1.1"
   id="svg1"
   xmlns="http://www.w3.org/2000/svg"
   xmlns:svg="http://www.w3.org/2000/svg">
  <defs
     id="defs1" />
  <path
     style="fill:#ffffff;stroke-width:0.0448045"
     d="m 8.7590501,20.2008 c -0.144391,-0.05441 -0.318142,-0.205628 -0.392169,-0.341317 -0.07077,-0.129724 -0.0796,-0.403593 -0.09999,-3.103495 l -0.02237,-2.961216 -1.275152,1.271906 c -0.701334,0.699548 -1.335541,1.303326 -1.409349,1.341727 -0.241922,0.125871 -0.577068,0.07638 -0.798785,-0.117962 -0.210885,-0.184847 -0.281576,-0.588328 -0.147486,-0.84181 0.03735,-0.07061 0.804122,-0.865222 1.703931,-1.765797 0.899809,-0.900577 1.636017,-1.65781 1.636017,-1.68274 0,-0.02493 -0.736208,-0.782163 -1.636017,-1.68274 -0.899815,-0.9005762 -1.666584,-1.6951852 -1.703937,-1.7657972 -0.127449,-0.240928 -0.07902,-0.586934 0.112968,-0.807196 0.185246,-0.212521 0.579008,-0.28471 0.833303,-0.152772 0.07381,0.03829 0.708015,0.642072 1.409349,1.341728 l 1.275152,1.2721012 0.02237,-2.9612162 c 0.0204,-2.699902 0.02922,-2.973771 0.09999,-3.103496 0.153885,-0.282063 0.472484,-0.418337 0.825905,-0.353263 0.150062,0.02763 0.405787,0.266712 2.1534109,2.013258 1.09072,1.090047 2.013528,2.039678 2.050683,2.11029 0.08738,0.166064 0.08639,0.475663 -0.0021,0.647215 -0.0383,0.07427 -0.80507,0.871562 -1.703932,1.7717592 -0.898863,0.900197 -1.634296,1.651515 -1.634296,1.669595 0,0.01808 0.735986,0.77071 1.635523,1.67251 0.899538,0.9018 1.666307,1.699331 1.703932,1.772291 0.08744,0.169569 0.08777,0.479759 6.71e-4,0.644836 -0.100894,0.19123 -3.9684229,4.041679 -4.1148409,4.096669 -0.132591,0.0498 -0.409306,0.0577 -0.522808,0.01493 z m 2.0135309,-5.418823 c -0.52872,-0.530624 -0.9765849,-0.964772 -0.9952559,-0.964772 -0.01867,0 -0.03395,0.883261 -0.03395,1.962802 v 1.962801 l 0.9952549,-0.99803 0.995257,-0.99803 z m 0,-5.5637622 0.961309,-0.964771 -0.995257,-0.99803 -0.9952549,-0.99803 v 1.962801 c 0,1.07954 0.01528,1.9628012 0.03395,1.9628012 0.01867,0 0.4665359,-0.4341472 0.9952559,-0.9647712 z"
     id="path2" />
</svg>
