<?xml version="1.0" encoding="UTF-8" standalone="no"?>
<svg
   width="14"
   height="14"
   viewBox="0 0 24 24"
   fill="none"
   version="1.1"
   id="svg1"
   xmlns="http://www.w3.org/2000/svg"
   xmlns:svg="http://www.w3.org/2000/svg">
  <defs
     id="defs1" />
  <path
     style="fill:#ffffff;stroke-width:0.0448045"
     d="m 8.7590501,20.2008 c -0.144391,-0.05441 -0.318142,-0.205628 -0.392169,-0.341317 -0.07077,-0.129724 -0.0796,-0.403593 -0.09999,-3.103495 l -0.02237,-2.961216 -1.275152,1.271906 c -0.701334,0.699548 -1.335541,1.303326 -1.409349,1.341727 -0.241922,0.125871 -0.577068,0.07638 -0.798785,-0.117962 -0.210885,-0.184847 -0.281576,-0.588328 -0.147486,-0.84181 0.03735,-0.07061 0.804122,-0.865222 1.703931,-1.765797 0.899809,-0.900577 1.636017,-1.65781 1.636017,-1.68274 0,-0.02493 -0.736208,-0.782163 -1.636017,-1.68274 -0.899815,-0.9005762 -1.666584,-1.6951852 -1.703937,-1.7657972 -0.127449,-0.240928 -0.07902,-0.586934 0.112968,-0.807196 0.185246,-0.212521 0.579008,-0.28471 0.833303,-0.152772 0.07381,0.03829 0.708015,0.642072 1.409349,1.341728 l 1.275152,1.2721012 0.02237,-2.9612162 c 0.0204,-2.699902 0.02922,-2.973771 0.09999,-3.103496 0.153885,-0.282063 0.472484,-0.418337 0.825905,-0.353263 0.150062,0.02763 0.405787,0.266712 2.1534109,2.013258 1.09072,1.090047 2.013528,2.039678 2.050683,2.11029 0.08738,0.166064 0.08639,0.475663 -0.0021,0.647215 -0.0383,0.07427 -0.80507,0.871562 -1.703932,1.7717592 -0.898863,0.900197 -1.634296,1.651515 -1.634296,1.669595 0,0.01808 0.735986,0.77071 1.635523,1.67251 0.899538,0.9018 1.666307,1.699331 1.703932,1.772291 0.08744,0.169569 0.08777,0.479759 6.71e-4,0.644836 -0.100894,0.19123 -3.9684229,4.041679 -4.1148409,4.096669 -0.132591,0.0498 -0.409306,0.0577 -0.522808,0.01493 z m 2.0135309,-5.418823 c -0.52872,-0.530624 -0.9765849,-0.964772 -0.9952559,-0.964772 -0.01867,0 -0.03395,0.883261 -0.03395,1.962802 v 1.962801 l 0.9952549,-0.99803 0.995257,-0.99803 z m 0,-5.5637622 0.961309,-0.964771 -0.995257,-0.99803 -0.9952549,-0.99803 v 1.962801 c 0,1.07954 0.01528,1.9628012 0.03395,1.9628012 0.01867,0 0.4665359,-0.4341472 0.9952559,-0.9647712 z"
     id="path2" />
  <path
     style="fill:#ffffff;stroke-width:0.0448045"
     d="m 14.978237,14.93334 c -0.144352,-0.05772 -0.305096,-0.209188 -0.384583,-0.362386 -0.09811,-0.189082 -0.07482,-0.447811 0.07379,-0.819988 0.27197,-0.681107 0.32459,-0.964945 0.32459,-1.75087 0,-0.785925 -0.05262,-1.069763 -0.324591,-1.75087 -0.209017,-0.5234522 -0.17361,-0.8111562 0.131512,-1.0686162 0.26496,-0.22357 0.66402,-0.210913 0.921646,0.02923 0.182857,0.17045 0.418898,0.7244 0.582505,1.3670422 0.208905,0.820575 0.208746,2.022205 -3.76e-4,2.846422 -0.135367,0.533527 -0.392338,1.177545 -0.529391,1.326762 -0.19288,0.209999 -0.532493,0.288279 -0.795102,0.183271 z"
     id="path3" />
  <path
     style="fill:#ffffff;stroke-width:0.0448045"
     d="m 17.371089,16.808074 c -0.204413,-0.09302 -0.410641,-0.354684 -0.446288,-0.566259 -0.0282,-0.16736 -0.0014,-0.247626 0.282471,-0.844883 0.514724,-1.083118 0.750102,-1.991254 0.799013,-3.082768 0.0579,-1.292074 -0.184477,-2.4177552 -0.799013,-3.7109042 -0.284815,-0.599328 -0.31074,-0.677089 -0.282203,-0.846465 0.06193,-0.367526 0.462601,-0.666701 0.815904,-0.609207 0.332084,0.05404 0.467703,0.199936 0.785018,0.844511 0.653085,1.326637 0.931151,2.5235322 0.931151,4.0079972 0,1.484465 -0.278066,2.68136 -0.931151,4.007996 -0.242794,0.493196 -0.324565,0.618104 -0.46617,0.712074 -0.203954,0.135346 -0.501127,0.173278 -0.688732,0.08792 z"
     id="path4" />
</svg>
